<svg width="1200" height="400" viewBox="0 0 1200 400" fill="none" xmlns="http://www.w3.org/2000/svg">
  <defs>
    <linearGradient id="g1" x1="0%" y1="0%" x2="100%" y2="100%">
      <stop offset="0%" style="stop-color:#10B981"/>
      <stop offset="100%" style="stop-color:#047857"/>
    </linearGradient>
    <linearGradient id="g2" x1="0%" y1="0%" x2="100%" y2="100%">
      <stop offset="0%" style="stop-color:#8B5CF6"/>
      <stop offset="100%" style="stop-color:#6D28D9"/>
    </linearGradient>
    <linearGradient id="g3" x1="0%" y1="0%" x2="100%" y2="100%">
      <stop offset="0%" style="stop-color:#F59E0B"/>
      <stop offset="100%" style="stop-color:#D97706"/>
    </linearGradient>
    <linearGradient id="g4" x1="0%" y1="0%" x2="100%" y2="100%">
      <stop offset="0%" style="stop-color:#EF4444"/>
      <stop offset="100%" style="stop-color:#DC2626"/>
    </linearGradient>
  </defs>
  <rect width="1200" height="400" rx="24" fill="#F0FDF4"/>
  
  <!-- Card 1 -->
  <rect x="40" y="40" width="260" height="320" rx="20" fill="white" filter="drop-shadow(0 4px 12px rgba(0,0,0,0.08))"/>
  <rect x="40" y="40" width="260" height="6" rx="3" fill="url(#g1)"/>
  <circle cx="170" cy="160" r="50" fill="#ECFDF5"/>
  <text x="170" y="175" font-family="Arial" font-size="40" font-weight="bold" fill="#059669" text-anchor="middle">6</text>
  <text x="170" y="240" font-family="Arial" font-size="20" font-weight="bold" fill="#1F2937" text-anchor="middle">Career Tracks</text>
  <text x="170" y="270" font-family="Arial" font-size="14" fill="#6B7280" text-anchor="middle">AI/ML · Full Stack · .NET</text>
  <text x="170" y="290" font-family="Arial" font-size="14" fill="#6B7280" text-anchor="middle">Mobile · Flutter · Python</text>
  
  <!-- Card 2 -->
  <rect x="330" y="40" width="260" height="320" rx="20" fill="white" filter="drop-shadow(0 4px 12px rgba(0,0,0,0.08))"/>
  <rect x="330" y="40" width="260" height="6" rx="3" fill="url(#g2)"/>
  <circle cx="460" cy="160" r="50" fill="#F5F3FF"/>
  <text x="460" y="175" font-family="Arial" font-size="40" font-weight="bold" fill="#7C3AED" text-anchor="middle">24/7</text>
  <text x="460" y="240" font-family="Arial" font-size="20" font-weight="bold" fill="#1F2937" text-anchor="middle">MarqAI Tutor</text>
  <text x="460" y="270" font-family="Arial" font-size="14" fill="#6B7280" text-anchor="middle">AI Voice Tutor Available</text>
  <text x="460" y="290" font-family="Arial" font-size="14" fill="#6B7280" text-anchor="middle">Round the Clock</text>
  
  <!-- Card 3 -->
  <rect x="620" y="40" width="260" height="320" rx="20" fill="white" filter="drop-shadow(0 4px 12px rgba(0,0,0,0.08))"/>
  <rect x="620" y="40" width="260" height="6" rx="3" fill="url(#g3)"/>
  <circle cx="750" cy="160" r="50" fill="#FFFBEB"/>
  <text x="750" y="178" font-family="Arial" font-size="36" font-weight="bold" fill="#D97706" text-anchor="middle">100+</text>
  <text x="750" y="240" font-family="Arial" font-size="20" font-weight="bold" fill="#1F2937" text-anchor="middle">Lessons</text>
  <text x="750" y="270" font-family="Arial" font-size="14" fill="#6B7280" text-anchor="middle">Step-wise with Code</text>
  <text x="750" y="290" font-family="Arial" font-size="14" fill="#6B7280" text-anchor="middle">Examples &amp; Videos</text>
  
  <!-- Card 4 -->
  <rect x="910" y="40" width="260" height="320" rx="20" fill="white" filter="drop-shadow(0 4px 12px rgba(0,0,0,0.08))"/>
  <rect x="910" y="40" width="260" height="6" rx="3" fill="url(#g4)"/>
  <circle cx="1040" cy="160" r="50" fill="#FEF2F2"/>
  <text x="1040" y="175" font-family="Arial" font-size="36" font-weight="bold" fill="#DC2626" text-anchor="middle">5+</text>
  <text x="1040" y="240" font-family="Arial" font-size="20" font-weight="bold" fill="#1F2937" text-anchor="middle">Languages</text>
  <text x="1040" y="270" font-family="Arial" font-size="14" fill="#6B7280" text-anchor="middle">English · Hindi · Tamil</text>
  <text x="1040" y="290" font-family="Arial" font-size="14" fill="#6B7280" text-anchor="middle">Telugu · Kannada</text>
</svg>